<?xml version="1.0" encoding="UTF-8" standalone="no"?>
<svg width="24px" height="24px" viewBox="0 0 24 24" version="1.1" xmlns="http://www.w3.org/2000/svg" xmlns:xlink="http://www.w3.org/1999/xlink">
    <!-- Generator: Sketch 39.1 (31720) - http://www.bohemiancoding.com/sketch -->
    <title>Facebook</title>
    <desc>Created with Sketch.</desc>
    <defs></defs>
    <g id="Page-1" stroke="none" stroke-width="1" fill="none" fill-rule="evenodd">
        <g id="Marketing-Home-v2---Stock-photo-B" transform="translate(-929.000000, -4037.000000)" fill="#9DA2A6">
            <path d="M953,4049 C953,4055.62733 947.627333,4061 941,4061 C934.372667,4061 929,4055.62733 929,4049 C929,4042.37267 934.372667,4037 941,4037 C947.627333,4037 953,4042.37267 953,4049 L953,4049 Z M941.722,4049 L943.016,4049 L943.188,4047.38333 L941.722,4047.38333 L941.724,4046.57467 C941.724,4046.15333 941.764,4045.92733 942.37,4045.92733 L943.178667,4045.92733 L943.178667,4044.31067 L941.884,4044.31067 C940.329333,4044.31067 939.781333,4045.09533 939.781333,4046.41333 L939.781333,4047.38333 L938.812,4047.38333 L938.812,4049 L939.781333,4049 L939.781333,4053.68933 L941.722,4053.68933 L941.722,4049 L941.722,4049 Z" id="Facebook"></path>
        </g>
    </g>
</svg>