<?xml version="1.0" encoding="UTF-8" standalone="no"?>
<svg
   xmlns:dc="http://purl.org/dc/elements/1.1/"
   xmlns:cc="http://creativecommons.org/ns#"
   xmlns:rdf="http://www.w3.org/1999/02/22-rdf-syntax-ns#"
   xmlns:svg="http://www.w3.org/2000/svg"
   xmlns="http://www.w3.org/2000/svg"
   xmlns:sodipodi="http://sodipodi.sourceforge.net/DTD/sodipodi-0.dtd"
   xmlns:inkscape="http://www.inkscape.org/namespaces/inkscape"
   height="600px"
   version="1.1"
   viewBox="0 0 60 60"
   width="600px"
   id="svg2"
   inkscape:version="0.91 r13725"
   sodipodi:docname="map.svg">
  <metadata
     id="metadata15">
    <rdf:RDF>
      <cc:Work
         rdf:about="">
        <dc:format>image/svg+xml</dc:format>
        <dc:type
           rdf:resource="http://purl.org/dc/dcmitype/StillImage" />
      </cc:Work>
    </rdf:RDF>
  </metadata>
  <sodipodi:namedview
     pagecolor="#ffffff"
     bordercolor="#666666"
     borderopacity="1"
     objecttolerance="10"
     gridtolerance="10"
     guidetolerance="10"
     inkscape:pageopacity="0"
     inkscape:pageshadow="2"
     inkscape:window-width="1366"
     inkscape:window-height="706"
     id="namedview13"
     showgrid="false"
     inkscape:zoom="0.39333333"
     inkscape:cx="-10.169492"
     inkscape:cy="297.45763"
     inkscape:window-x="-8"
     inkscape:window-y="-8"
     inkscape:window-maximized="1"
     inkscape:current-layer="Icon-37" />
  <title
     id="title4" />
  <desc
     id="desc6" />
  <defs
     id="defs8" />
  <g
     fill="none"
     fill-rule="evenodd"
     id="People"
     stroke="none"
     stroke-width="1">
    <g
       fill="#000000"
       id="Icon-37">
      <path
         d="m 30,10 c 1.103,0 2,-0.897 2,-2 0,-1.103 -0.897,-2 -2,-2 -1.103,0 -2,0.897 -2,2 0,1.103 0.897,2 2,2 z M 24,8 c 0,2.096 1.833,5.104 2.801,6.401 L 30,18.399 33.219,14.375 c 0.483672,-0.553485 1.437264,-1.637727 2.013634,-2.841839 C 35.803828,10.339863 36,9.028838 36,8 36,4.691 33.309,2 30,2 26.691,2 24,4.691 24,8 Z m 1.219,7.625 C 24.871,15.16 22,11.221 22,8 c 0,-4.411 3.589,-8 8,-8 4.411,0 8,3.589 8,8 0,2.755 -2.15,6.405 -3.248,7.658 l -3.971,4.967 C 30.591,20.862 30.304,21 30,21 29.696,21 29.409,20.862 29.219,20.625 Z M 41,55 c 0.552,0 1,-0.447 1,-1 l 0,-14.246 13.275,-3.792 c 0.531,-0.152 0.838,-0.706 0.686,-1.236 -0.151,-0.532 -0.705,-0.833 -1.236,-0.688 l -14,4 C 40.296,38.161 40,38.554 40,39 l 0,15 c 0,0.553 0.448,1 1,1 z m -4,-1 c 0.552,0 1,-0.447 1,-1 l 0,-14 c 0,-0.429 -0.274,-0.811 -0.681,-0.947 l -14,-4.719 c -0.524,-0.179 -1.091,0.103 -1.267,0.628 -0.176,0.523 0.105,1.091 0.629,1.267 L 36,39.718 36,53 c 0,0.553 0.448,1 1,1 z m -22.287,-26.958 -10,3 C 4.184,30.201 3.883,30.759 4.042,31.287 4.172,31.721 4.569,32 5,32 5.095,32 5.191,31.986 5.287,31.958 l 10,-3 c 0.529,-0.159 0.83,-0.717 0.671,-1.245 -0.159,-0.529 -0.715,-0.825 -1.245,-0.671 z M 19,8 c -0.552,0 -1,0.447 -1,1 l 0,18 c 0,0.431 0.275,0.812 0.684,0.948 l 18,6 C 36.787,33.983 36.894,34 37,34 37.207,34 37.412,33.936 37.584,33.812 37.846,33.623 38,33.321 38,33 l 0,-15 c 0,-0.553 -0.448,-1 -1,-1 -0.552,0 -1,0.447 -1,1 L 36,31.612 20,26.279 20,9 C 20,8.447 19.552,8 19,8 Z M 58.02,8.907 C 57.037,8.109 55.896,7.798 54.725,8.038 l -14,4 C 40.296,12.161 40,12.554 40,13 l 0,20 c 0,0.313 0.147,0.609 0.398,0.799 0.249,0.187 0.575,0.249 0.877,0.163 l 14,-4 C 55.806,29.81 56.113,29.256 55.961,28.726 55.81,28.194 55.256,27.89 54.725,28.038 L 42,31.674 42,13.754 55.204,9.979 c 0.667,-0.139 1.26,0.242 1.553,0.48 C 57.512,11.073 58,12.07 58,13 l 0,38 c 0,1.314 -0.997,2.229 -3.275,3.038 L 41.037,57.949 20,50.3 20,33 c 0,-0.313 -0.147,-0.609 -0.398,-0.799 -0.25,-0.188 -0.575,-0.248 -0.877,-0.163 l -14,4 c -0.531,0.152 -0.838,0.706 -0.686,1.236 0.151,0.532 0.705,0.833 1.236,0.688 L 18,34.326 18,51 c 0,0.421 0.263,0.796 0.658,0.939 l 22,8 C 40.769,59.979 40.884,60 41,60 c 0.092,0 0.185,-0.013 0.275,-0.038 l 14.059,-4.02 C 56.61,55.49 60,54.288 60,51 L 60,13 C 60,11.47 59.241,9.901 58.02,8.907 Z M 15.958,51.869 c 0.151,0.53 -0.156,1.084 -0.687,1.236 L 5.275,55.962 C 4.949,56.054 4.622,56.1 4.296,56.1 3.514,56.1 2.749,55.836 2.072,55.324 0.813,54.372 0,52.675 0,51 L 0,13 C 0,9.712 3.39,8.51 4.666,8.058 l 14.059,-4.02 c 0.531,-0.146 1.085,0.156 1.236,0.688 0.152,0.53 -0.155,1.084 -0.686,1.236 l -14,4 C 2.997,10.771 2,11.686 2,13 l 0,38 c 0,1.037 0.525,2.16 1.278,2.729 0.459,0.347 0.946,0.451 1.45,0.309 l 9.993,-2.856 c 0.531,-0.148 1.085,0.156 1.237,0.687 z"
         id="map"
         style="fill:#fb7260;fill-opacity:1"
         inkscape:connector-curvature="0"
         sodipodi:nodetypes="csssccccccssscccsssccscccscccccsscccsscccccscccccsccccccssccscssssccscccccsscccccccccsscccsccccccsccsccsscccccscsscccccssccccc" />
    </g>
  </g>
</svg>
