<?xml version="1.0" encoding="UTF-8" standalone="no"?>
<svg width="24px" height="24px" viewBox="0 0 24 24" version="1.1" xmlns="http://www.w3.org/2000/svg" xmlns:xlink="http://www.w3.org/1999/xlink">
    <!-- Generator: Sketch 39.1 (31720) - http://www.bohemiancoding.com/sketch -->
    <title>Twitter</title>
    <desc>Created with Sketch.</desc>
    <defs></defs>
    <g id="Page-1" stroke="none" stroke-width="1" fill="none" fill-rule="evenodd">
        <g id="Marketing-Home-v2---Stock-photo-B" transform="translate(-965.000000, -4037.000000)" fill="#9DA2A6">
            <path d="M989,4049 C989,4055.62733 983.627333,4061 977,4061 C970.372667,4061 965,4055.62733 965,4049 C965,4042.37267 970.372667,4037 977,4037 C983.627333,4037 989,4042.37267 989,4049 L989,4049 Z M982.534667,4045.808 C982.156,4045.976 981.749333,4046.08933 981.322,4046.14067 C981.758,4045.87933 982.093333,4045.46533 982.250667,4044.972 C981.842667,4045.214 981.390667,4045.39 980.91,4045.48467 C980.524667,4045.074 979.976,4044.818 979.368667,4044.818 C978.202,4044.818 977.256667,4045.76333 977.256667,4046.92933 C977.256667,4047.09467 977.275333,4047.256 977.311333,4047.41067 C975.556667,4047.32267 974.000667,4046.482 972.959333,4045.20467 C972.778,4045.516 972.673333,4045.87867 972.673333,4046.266 C972.673333,4046.99867 973.046,4047.64467 973.612667,4048.02333 C973.266667,4048.01267 972.941333,4047.91733 972.656667,4047.75933 C972.656,4047.768 972.656,4047.77667 972.656,4047.786 C972.656,4048.80867 973.384,4049.66267 974.35,4049.856 C974.172667,4049.90467 973.986,4049.93067 973.794,4049.93067 C973.657333,4049.93067 973.525333,4049.91733 973.396667,4049.89267 C973.665333,4050.73133 974.444667,4051.342 975.368667,4051.35867 C974.646,4051.92533 973.736,4052.26267 972.746667,4052.26267 C972.576,4052.26267 972.408,4052.25267 972.242667,4052.23333 C973.177333,4052.832 974.287333,4053.182 975.48,4053.182 C979.363333,4053.182 981.487333,4049.96467 981.487333,4047.174 C981.487333,4047.08267 981.485333,4046.99133 981.481333,4046.90067 C981.894,4046.60333 982.252,4046.23133 982.534667,4045.808 L982.534667,4045.808 Z" id="Twitter"></path>
        </g>
    </g>
</svg>